<?xml version="1.0" encoding="UTF-8" standalone="no"?>
<!-- Created with Inkscape (http://www.inkscape.org/) -->

<svg
   xmlns:dc="http://purl.org/dc/elements/1.1/"
   xmlns:cc="http://creativecommons.org/ns#"
   xmlns:rdf="http://www.w3.org/1999/02/22-rdf-syntax-ns#"
   xmlns:svg="http://www.w3.org/2000/svg"
   xmlns="http://www.w3.org/2000/svg"
   xmlns:sodipodi="http://sodipodi.sourceforge.net/DTD/sodipodi-0.dtd"
   xmlns:inkscape="http://www.inkscape.org/namespaces/inkscape"
   height="263.60501"
   width="1004.333"
   version="1.1"
   id="svg2"
   inkscape:version="0.91 r13725"
   sodipodi:docname="Fmod.svg">
  <defs
     id="defs24" />
  <sodipodi:namedview
     pagecolor="#ffffff"
     bordercolor="#666666"
     borderopacity="1"
     objecttolerance="10"
     gridtolerance="10"
     guidetolerance="10"
     inkscape:pageopacity="0"
     inkscape:pageshadow="2"
     inkscape:window-width="1366"
     inkscape:window-height="705"
     id="namedview22"
     showgrid="false"
     inkscape:zoom="0.35355339"
     inkscape:cx="446.49474"
     inkscape:cy="135.10426"
     inkscape:window-x="-8"
     inkscape:window-y="-8"
     inkscape:window-maximized="1"
     inkscape:current-layer="svg2" />
  <metadata
     id="metadata4">
    <rdf:RDF>
      <cc:Work
         rdf:about="">
        <dc:format>image/svg+xml</dc:format>
        <dc:type
           rdf:resource="http://purl.org/dc/dcmitype/StillImage" />
        <dc:title></dc:title>
      </cc:Work>
    </rdf:RDF>
  </metadata>
  <g
     transform="matrix(4.0443776,0,0,4.0443776,-2565.7466,-2716.7385)"
     id="g6"
     style="fill:#000000">
    <g
       transform="matrix(2.2797596,0,0,2.2797596,625.28453,662.61315)"
       id="g8"
       style="fill:#000000">
      <path
         d="m 109.129,28.0778 0.74329,0 c 0.37544,0 0.78881,0.07585 0.78881,0.553679 0,0.568847 -0.45129,0.591601 -0.94808,0.591601 l -0.58402,0 0,-1.14528 z m -0.55747,3.14762 0.55747,0 0,-1.54727 0.59539,0 0.97842,1.54727 0.60298,0 -1.03151,-1.59277 c 0.53472,-0.05688 0.94808,-0.32614 0.94808,-0.978419 0,-0.693994 -0.40199,-1.03151 -1.25905,-1.03151 l -1.39178,0 0,3.6027 z m -1.2818,-1.73309 c 0,-1.47521 1.10356,-2.61291 2.54464,-2.61291 1.42591,0 2.52948,1.1377 2.52948,2.61291 0,1.50555 -1.10357,2.64325 -2.52948,2.64325 -1.44108,0 -2.54464,-1.1377 -2.54464,-2.64325 m -0.56127,0 c 0,1.77101 1.41833,3.09453 3.10591,3.09453 1.68,0 3.09074,-1.32352 3.09074,-3.09453 0,-1.74067 -1.41074,-3.06799 -3.09074,-3.06799 -1.68758,0 -3.10591,1.32731 -3.10591,3.06799"
         id="path10"
         inkscape:connector-curvature="0"
         style="fill:#000000;fill-rule:evenodd" />
      <path
         d="m 23.1967,16.617 c 0,1.76343 -1.4297,3.19692 -3.19692,3.19692 -1.76722,0 -3.19692,-1.4335 -3.19692,-3.19692 0,-1.76343 1.4297,-3.19692 3.19692,-3.19692 1.76722,0 3.19692,1.4335 3.19692,3.19692"
         id="path12"
         inkscape:connector-curvature="0"
         style="fill:#000000;fill-rule:nonzero" />
      <path
         d="m 100.139,24.5862 c 0.10998,-0.166862 0.21237,-0.356478 0.30339,-0.561263 0.50437,-0.982211 1.53968,-1.63828 2.7153,-1.63828 1.6762,0 3.03385,1.35765 3.03385,3.03386 0,0.428532 -0.0872,0.826726 -0.2465,1.19458 l -0.0834,0.182032 c -1.67621,3.44722 -5.22202,5.79087 -9.24188,5.79087 -5.58229,0 -10.1065,-4.52424 -10.1065,-10.1065 0,-5.58229 4.52424,-10.1065 10.1065,-10.1065 l 0.4448,0 c 1.66104,0.07205 3.22726,0.546094 4.60387,1.32731 l 0,-9.70078 6.00704,0 0,13.6713 c 0,1.58519 -1.39937,3.27656 -3.23106,3.27656 -2.0706,0 -3.64062,-0.667448 -4.85796,-1.69896 -0.697786,-0.542302 -1.57381,-0.868441 -2.52189,-0.868441 l -0.443702,0 c -2.26401,0 -4.0995,1.83927 -4.0995,4.0995 0,2.26401 1.83548,4.10329 4.0995,4.10329 1.49038,0 2.80252,-0.803972 3.519272,-1.99855"
         id="path14"
         inkscape:connector-curvature="0"
         style="fill:#000000;fill-rule:nonzero" />
      <path
         d="m 78.9116,22.4834 c 0,-2.26401 -1.83548,-4.0995 -4.0995,-4.0995 -2.26401,0 -4.0995,1.83548 -4.0995,4.0995 0,2.26401 1.83548,4.0995 4.0995,4.0995 2.26401,0 4.0995,-1.83548 4.0995,-4.0995 m -14.206,0 c 0,-5.58229 4.52424,-10.1065 10.1065,-10.1065 5.58229,0 10.1065,4.52424 10.1065,10.1065 0,5.58229 -4.52424,10.1065 -10.1065,10.1065 -5.58229,0 -10.1065,-4.52424 -10.1065,-10.1065"
         id="path16"
         inkscape:connector-curvature="0"
         style="fill:#000000;fill-rule:nonzero" />
      <path
         d="m 52.489,18.3699 c -0.504378,0 -0.93291,0.329932 -1.08081,0.788802 l -2.41571,8.32793 c -0.872233,2.95042 -3.58374,5.10067 -6.81859,5.10067 -3.23106,0 -5.94256,-2.15024 -6.8148,-5.10067 l -2.41571,-8.32793 c -0.1479,-0.45887 -0.576432,-0.788802 -1.08081,-0.788802 -0.504379,0 -0.936703,0.329932 -1.0884,0.788802 l -2.41191,8.32793 c -0.872234,2.95042 -3.6065,5.10067 -6.83755,5.10067 l -1.6762,0 0,-5.99186 1.69517,0 c 0.500586,0 0.921533,-0.32614 1.06943,-0.78501 l 2.41571,-8.33172 c 0.872233,-2.94663 3.59891,-5.10067 6.83376,-5.10067 3.23485,0 5.95773,2.15404 6.82996,5.10067 l 2.41571,8.33172 c 0.147901,0.45887 0.568848,0.78501 1.06564,0.78501 0.500586,0 0.921533,-0.32614 1.06943,-0.78501 l 2.41571,-8.33172 c 0.872234,-2.94663 3.59512,-5.10067 6.82997,-5.10067 3.23485,0 5.96152,2.15404 6.83376,5.10067 l 2.41571,8.33172 c 0.1479,0.45887 0.568848,0.78501 1.06564,0.78501 l 1.69896,0 0,5.99186 -1.6762,0 c -3.23485,0 -5.96532,-2.15024 -6.83755,-5.10067 l -2.41571,-8.32793 C 53.429502,18.699832 52.993385,18.3699 52.48901,18.3699"
         id="path18"
         inkscape:connector-curvature="0"
         style="fill:#000000;fill-rule:nonzero" />
      <path
         d="m 19.2201,10.007 c -2.26401,0 -4.0995,1.83548 -4.0995,4.0995 l 0,18.48 -6.00704,0 0,-12.7687 -5.11584,0 0,-5.98807 5.11963,0 c 0.1479,-5.45336 4.61525,-9.8297 10.1028,-9.8297 l 5.99566,0 0,6.00704 -5.99571,0 z"
         id="path20"
         inkscape:connector-curvature="0"
         style="fill:#000000;fill-rule:nonzero" />
    </g>
  </g>
</svg>
